<svg id="Capa_1" data-name="Capa 1" xmlns="http://www.w3.org/2000/svg" viewBox="0 0 548.77 118.1"><defs><style>.cls-1,.cls-2,.cls-3{fill:#fff;}.cls-1,.cls-3{stroke:#fff;stroke-miterlimit:10;}.cls-3{stroke-width:1.5px;}</style></defs><polygon class="cls-1" points="38.79 19.41 49.33 19.41 25.56 95.25 18.87 81.33 38.79 19.41"/><polygon class="cls-1" points="53.36 19.41 66.6 19.41 36.07 116.72 27.77 98.83 53.36 19.41"/><path class="cls-1" d="M54.73,66.79C76.16,69.71,92,55.24,91.89,42.47c-.07-9-8.12-18.24-19.51-22.66,19.9-1.22,35.27,9.63,37.32,22.11,1.87,11.29-7.67,20.8-9.36,22.42C87.59,76.54,69,72.29,66,71.54A40.11,40.11,0,0,1,54.73,66.79Z"/><path class="cls-1" d="M1.16.5H76c18.31,1.56,33.5,11.39,38.77,25.66a35.51,35.51,0,0,1,1.35,18.73,39,39,0,0,0-13-20.8,39.41,39.41,0,0,0-26.2-8.73l-45.2.09A48.19,48.19,0,0,1,16.24,11.3,48.36,48.36,0,0,1,1.16.5Z"/><path class="cls-2" d="M139.72,56V26.78h8.84a17.81,17.81,0,0,1,5.78.85,8.09,8.09,0,0,1,3.95,2.78,8.57,8.57,0,0,1,1.45,5.25,8.9,8.9,0,0,1-1.43,5.21,8.59,8.59,0,0,1-3.91,3.05,14.8,14.8,0,0,1-5.68,1h-4.4V56Zm4.6-14.78h4a8.19,8.19,0,0,0,5.15-1.35,5,5,0,0,0,1.71-4.2c0-2-.6-3.3-1.79-4a10.09,10.09,0,0,0-5.27-1.11h-3.8Z"/><path class="cls-2" d="M159.18,56l9.67-29.21h5.31L183.84,56H179l-4.72-15.85c-.47-1.59-.94-3.19-1.38-4.82s-.9-3.25-1.35-4.89h-.16c-.42,1.66-.87,3.3-1.33,4.91s-.93,3.21-1.41,4.8L163.9,56Zm5.47-8.28V44.06h13.64v3.65Z"/><path class="cls-2" d="M187.68,56V26.78h9.55a16.64,16.64,0,0,1,5.39.81,7.64,7.64,0,0,1,3.77,2.66,8.12,8.12,0,0,1,1.39,5,8.55,8.55,0,0,1-1.39,5,8.3,8.3,0,0,1-3.77,3,14.08,14.08,0,0,1-5.39,1h-4.95V56Zm4.6-15.46h4.4a7.72,7.72,0,0,0,4.85-1.32,4.71,4.71,0,0,0,1.69-4,4,4,0,0,0-1.69-3.7,9.22,9.22,0,0,0-4.85-1h-4.4ZM203.62,56l-7.26-13,3.41-2.65,9,15.65Z"/><path class="cls-2" d="M213.68,56V26.78h7.58a16.38,16.38,0,0,1,7.65,1.64,11,11,0,0,1,4.77,4.86,17.41,17.41,0,0,1,1.65,8,17.78,17.78,0,0,1-1.65,8,11.14,11.14,0,0,1-4.73,5A15.45,15.45,0,0,1,221.49,56Zm4.6-3.76h2.66A10.53,10.53,0,0,0,226.23,51a7.69,7.69,0,0,0,3.25-3.67,14.73,14.73,0,0,0,1.09-6,14.48,14.48,0,0,0-1.09-6,7.46,7.46,0,0,0-3.25-3.55,11.09,11.09,0,0,0-5.29-1.16h-2.66Z"/><path class="cls-2" d="M252.49,56.55a11.9,11.9,0,0,1-6.6-1.86,12.51,12.51,0,0,1-4.5-5.3,18.76,18.76,0,0,1-1.62-8.1,18.38,18.38,0,0,1,1.62-8.07,12.23,12.23,0,0,1,22.2,0,18.37,18.37,0,0,1,1.63,8.07,18.76,18.76,0,0,1-1.63,8.1,12.61,12.61,0,0,1-4.48,5.3A11.85,11.85,0,0,1,252.49,56.55Zm0-4a6.75,6.75,0,0,0,4.22-1.39,9,9,0,0,0,2.8-3.91,16.1,16.1,0,0,0,1-5.92,15.86,15.86,0,0,0-1-5.89,8.48,8.48,0,0,0-2.8-3.8,7.36,7.36,0,0,0-8.44,0,8.37,8.37,0,0,0-2.78,3.8,16.29,16.29,0,0,0-1,5.89,16.54,16.54,0,0,0,1,5.92,8.84,8.84,0,0,0,2.78,3.91A6.75,6.75,0,0,0,252.49,52.51Z"/><path class="cls-2" d="M286.86,56.55A10.28,10.28,0,0,1,282,55.46a7.75,7.75,0,0,1-4.28-7.12,7.62,7.62,0,0,1,.95-3.86,10.59,10.59,0,0,1,2.5-2.9,31.09,31.09,0,0,1,3.25-2.29c1.14-.7,2.21-1.4,3.23-2.08a12.14,12.14,0,0,0,2.5-2.19,4,4,0,0,0,1-2.69,4.13,4.13,0,0,0-.26-1.47,2.29,2.29,0,0,0-.81-1.07,2.44,2.44,0,0,0-1.43-.39,3,3,0,0,0-2.4,1.11,4.29,4.29,0,0,0-.93,2.85,9.74,9.74,0,0,0,1,4.14,22.81,22.81,0,0,0,2.76,4.4,35.6,35.6,0,0,0,3.82,4.16,39.64,39.64,0,0,0,4.24,3.47,26.45,26.45,0,0,0,3.41,2.06,13.21,13.21,0,0,0,3.1,1.15l-1.19,3.81a20.28,20.28,0,0,1-3.93-1.49,27.27,27.27,0,0,1-4.16-2.55,42.81,42.81,0,0,1-4.82-4.23,41.92,41.92,0,0,1-4.14-4.91,26.58,26.58,0,0,1-2.89-5.13,12.54,12.54,0,0,1-1.07-4.84,7.21,7.21,0,0,1,.89-3.59,6.78,6.78,0,0,1,2.5-2.57,7.07,7.07,0,0,1,3.74-1A6.07,6.07,0,0,1,293.1,28a5.94,5.94,0,0,1,1.65,4.34,6.17,6.17,0,0,1-.94,3.39,12.26,12.26,0,0,1-2.35,2.73,31.42,31.42,0,0,1-3.06,2.36c-1.08.74-2.1,1.48-3,2.22A12.33,12.33,0,0,0,283,45.33a4.47,4.47,0,0,0-.91,2.74,4.77,4.77,0,0,0,.69,2.57,4.66,4.66,0,0,0,1.89,1.71,6.09,6.09,0,0,0,2.73.59,6.78,6.78,0,0,0,3.35-.91,14.49,14.49,0,0,0,3.11-2.34A21.48,21.48,0,0,0,297,45.37,24.37,24.37,0,0,0,299.11,40h4.2a34.5,34.5,0,0,1-2.5,6.26,27.82,27.82,0,0,1-3.76,5.51,16,16,0,0,1-4.42,3.43A12.16,12.16,0,0,1,286.86,56.55Z"/><path class="cls-2" d="M313.26,56l9.67-29.21h5.31L337.91,56H333l-4.72-15.85c-.47-1.59-.94-3.19-1.39-4.82s-.9-3.25-1.34-4.89h-.16q-.65,2.49-1.33,4.91t-1.41,4.8L318,56Zm5.47-8.28V44.06h13.63v3.65Z"/><path class="cls-2" d="M350.08,56.55a14.22,14.22,0,0,1-5.69-1.15,14.83,14.83,0,0,1-4.69-3.17l2.69-3.17A13,13,0,0,0,346,51.55a9.71,9.71,0,0,0,4.18,1,6.23,6.23,0,0,0,4-1.15,3.67,3.67,0,0,0,1.41-3,3.63,3.63,0,0,0-.59-2.16,4.78,4.78,0,0,0-1.65-1.36c-.7-.37-1.5-.76-2.4-1.15L347,42a14.37,14.37,0,0,1-2.79-1.56,8,8,0,0,1-2.26-2.46,6.88,6.88,0,0,1-.9-3.63,7.19,7.19,0,0,1,1.23-4.12,8.49,8.49,0,0,1,3.41-2.88,11.32,11.32,0,0,1,5-1,12.16,12.16,0,0,1,4.87,1A11.75,11.75,0,0,1,359.4,30l-2.34,2.93A11.75,11.75,0,0,0,354.11,31a8.66,8.66,0,0,0-3.51-.69,5.72,5.72,0,0,0-3.57,1A3.25,3.25,0,0,0,345.72,34a3.18,3.18,0,0,0,.68,2.09,5,5,0,0,0,1.76,1.34c.73.36,1.47.7,2.24,1l4,1.71a13.13,13.13,0,0,1,3.09,1.74,7.44,7.44,0,0,1,2.11,2.5,8,8,0,0,1,.75,3.65,7.73,7.73,0,0,1-1.23,4.26,8.84,8.84,0,0,1-3.53,3.09A12,12,0,0,1,350.08,56.55Z"/><path class="cls-2" d="M377,56.55a11.85,11.85,0,0,1-6.6-1.86,12.51,12.51,0,0,1-4.5-5.3,18.61,18.61,0,0,1-1.63-8.1,18.23,18.23,0,0,1,1.63-8.07,12.54,12.54,0,0,1,17.72-5.15,12.3,12.3,0,0,1,4.48,5.15,18.38,18.38,0,0,1,1.62,8.07,18.76,18.76,0,0,1-1.62,8.1,12.68,12.68,0,0,1-4.48,5.3A11.87,11.87,0,0,1,377,56.55Zm0-4a6.75,6.75,0,0,0,4.22-1.39A8.93,8.93,0,0,0,384,47.21a16.1,16.1,0,0,0,1-5.92,15.86,15.86,0,0,0-1-5.89,8.46,8.46,0,0,0-2.79-3.8,7.36,7.36,0,0,0-8.44,0A8.3,8.3,0,0,0,370,35.4a16.08,16.08,0,0,0-1,5.89,16.32,16.32,0,0,0,1,5.92,8.76,8.76,0,0,0,2.78,3.91A6.75,6.75,0,0,0,377,52.51Z"/><path class="cls-2" d="M407.12,56.55a12.85,12.85,0,0,1-5.09-1,12,12,0,0,1-4.14-3,13.58,13.58,0,0,1-2.78-4.73,19.16,19.16,0,0,1-1-6.4,18.46,18.46,0,0,1,1-6.39A14.43,14.43,0,0,1,398,30.29a12,12,0,0,1,4.2-3,13.21,13.21,0,0,1,5.19-1,10.12,10.12,0,0,1,4.8,1.11A12.65,12.65,0,0,1,415.61,30l-2.46,2.93A10.63,10.63,0,0,0,410.59,31a6.71,6.71,0,0,0-3.15-.73A7.56,7.56,0,0,0,403,31.62a8.82,8.82,0,0,0-3,3.8,14.47,14.47,0,0,0-1.09,5.91,15.58,15.58,0,0,0,1,6,8.58,8.58,0,0,0,2.93,3.87,7.54,7.54,0,0,0,4.48,1.35,7.28,7.28,0,0,0,3.55-.86,10.76,10.76,0,0,0,2.87-2.28l2.5,2.94a12.74,12.74,0,0,1-4,3.15A11.47,11.47,0,0,1,407.12,56.55Z"/><path class="cls-2" d="M421.35,56V26.78H426V56Z"/><path class="cls-2" d="M429.76,56l9.67-29.21h5.31L454.41,56h-4.87l-4.72-15.85c-.47-1.59-.94-3.19-1.39-4.82s-.9-3.25-1.34-4.89h-.16q-.65,2.49-1.33,4.91t-1.41,4.8L434.47,56Zm5.47-8.28V44.06h13.63v3.65Z"/><path class="cls-2" d="M458.26,56V26.78h7.57a16.38,16.38,0,0,1,7.65,1.64,11.06,11.06,0,0,1,4.78,4.86,17.55,17.55,0,0,1,1.64,8,17.92,17.92,0,0,1-1.64,8,11.21,11.21,0,0,1-4.74,5A15.41,15.41,0,0,1,466.07,56Zm4.6-3.76h2.65A10.53,10.53,0,0,0,470.8,51a7.64,7.64,0,0,0,3.25-3.67,14.73,14.73,0,0,0,1.09-6,14.48,14.48,0,0,0-1.09-6,7.41,7.41,0,0,0-3.25-3.55,11.09,11.09,0,0,0-5.29-1.16h-2.65Z"/><path class="cls-2" d="M497.07,56.55a11.91,11.91,0,0,1-6.61-1.86,12.55,12.55,0,0,1-4.49-5.3,18.61,18.61,0,0,1-1.63-8.1A18.23,18.23,0,0,1,486,33.22a12.22,12.22,0,0,1,22.19,0,18.23,18.23,0,0,1,1.63,8.07,18.61,18.61,0,0,1-1.63,8.1,12.58,12.58,0,0,1-4.47,5.3A11.89,11.89,0,0,1,497.07,56.55Zm0-4a6.77,6.77,0,0,0,4.22-1.39,8.93,8.93,0,0,0,2.79-3.91,16.1,16.1,0,0,0,1-5.92,15.86,15.86,0,0,0-1-5.89,8.46,8.46,0,0,0-2.79-3.8,7.38,7.38,0,0,0-8.45,0,8.36,8.36,0,0,0-2.77,3.8,16.08,16.08,0,0,0-1,5.89,16.32,16.32,0,0,0,1,5.92,8.82,8.82,0,0,0,2.77,3.91A6.78,6.78,0,0,0,497.07,52.51Z"/><path class="cls-2" d="M524.18,56.55a14.18,14.18,0,0,1-5.69-1.15,15,15,0,0,1-4.7-3.17l2.7-3.17a12.88,12.88,0,0,0,3.63,2.49,9.71,9.71,0,0,0,4.18,1,6.25,6.25,0,0,0,4-1.15,3.67,3.67,0,0,0,1.41-3,3.57,3.57,0,0,0-.6-2.16,4.65,4.65,0,0,0-1.64-1.36c-.7-.37-1.5-.76-2.4-1.15l-4-1.75a14.44,14.44,0,0,1-2.8-1.56A8.2,8.2,0,0,1,516,37.94a7,7,0,0,1-.89-3.63,7.19,7.19,0,0,1,1.23-4.12,8.49,8.49,0,0,1,3.41-2.88,11.25,11.25,0,0,1,5-1,12.21,12.21,0,0,1,4.88,1A11.7,11.7,0,0,1,533.49,30l-2.33,2.93a11.62,11.62,0,0,0-3-1.92,8.59,8.59,0,0,0-3.51-.69,5.7,5.7,0,0,0-3.56,1A3.23,3.23,0,0,0,519.82,34a3.18,3.18,0,0,0,.67,2.09,5.18,5.18,0,0,0,1.77,1.34c.72.36,1.47.7,2.24,1l4,1.71a13.55,13.55,0,0,1,3.09,1.74,7.3,7.3,0,0,1,2.1,2.5,8,8,0,0,1,.76,3.65,7.73,7.73,0,0,1-1.23,4.26,8.84,8.84,0,0,1-3.53,3.09A12,12,0,0,1,524.18,56.55Z"/><path class="cls-2" d="M155.22,91.62a6,6,0,0,1-3.08-.8A5.62,5.62,0,0,1,150,88.51a7.75,7.75,0,0,1-.8-3.65,7.33,7.33,0,0,1,.86-3.67,6,6,0,0,1,2.28-2.32,6.13,6.13,0,0,1,3.07-.81,4.9,4.9,0,0,1,2.18.45,6.74,6.74,0,0,1,1.58,1.07L158.05,81a4.81,4.81,0,0,0-1.17-.81,3.08,3.08,0,0,0-1.39-.31,3.73,3.73,0,0,0-2.1.62,4.13,4.13,0,0,0-1.45,1.73,6.85,6.85,0,0,0,0,5.21,4.15,4.15,0,0,0,1.4,1.74,3.59,3.59,0,0,0,2.08.62,3.72,3.72,0,0,0,1.67-.37,5.93,5.93,0,0,0,1.38-.92l.95,1.48a7,7,0,0,1-1.95,1.19A6.07,6.07,0,0,1,155.22,91.62Z"/><path class="cls-2" d="M166.64,91.62a5.8,5.8,0,0,1-5.15-3.11,8.58,8.58,0,0,1,0-7.32,5.87,5.87,0,0,1,2.2-2.32,5.72,5.72,0,0,1,2.95-.81,5.86,5.86,0,0,1,2.27.45,5.72,5.72,0,0,1,1.92,1.33,6.3,6.3,0,0,1,1.3,2.14,8.05,8.05,0,0,1,.48,2.88,7.51,7.51,0,0,1-.83,3.65,6,6,0,0,1-2.19,2.31A5.73,5.73,0,0,1,166.64,91.62Zm0-1.81a3.23,3.23,0,0,0,2-.62,3.93,3.93,0,0,0,1.32-1.74,6.5,6.5,0,0,0,.48-2.59,6.62,6.62,0,0,0-.48-2.62,4,4,0,0,0-1.32-1.73,3.41,3.41,0,0,0-3.92,0,3.93,3.93,0,0,0-1.31,1.73,6.81,6.81,0,0,0-.46,2.62,6.69,6.69,0,0,0,.46,2.59,3.91,3.91,0,0,0,1.31,1.74A3.23,3.23,0,0,0,166.64,89.81Z"/><path class="cls-2" d="M176,91.31V78.39h1.79l.21,1.88h.05a11,11,0,0,1,2-1.57,4.38,4.38,0,0,1,2.37-.64,3.47,3.47,0,0,1,3,1.3,6.32,6.32,0,0,1,1,3.76v8.19h-2.17v-7.9a4.61,4.61,0,0,0-.58-2.64,2.15,2.15,0,0,0-1.87-.81,3.27,3.27,0,0,0-1.78.5,10.41,10.41,0,0,0-1.74,1.48v9.37Z"/><path class="cls-2" d="M193.92,91.62a7,7,0,0,1-2.63-.52,7.76,7.76,0,0,1-2.17-1.27l1-1.45a9.12,9.12,0,0,0,1.76,1.12,4.84,4.84,0,0,0,2.07.43,2.74,2.74,0,0,0,1.92-.59,1.85,1.85,0,0,0,.63-1.43,1.51,1.51,0,0,0-.44-1.11A4.08,4.08,0,0,0,195,86a14.05,14.05,0,0,0-1.39-.58c-.61-.24-1.2-.51-1.78-.8a4.33,4.33,0,0,1-1.42-1.14,2.77,2.77,0,0,1-.56-1.8,3.4,3.4,0,0,1,.52-1.87,3.68,3.68,0,0,1,1.52-1.3,5.4,5.4,0,0,1,2.41-.49,5.67,5.67,0,0,1,2.22.43,6.61,6.61,0,0,1,1.77,1l-1,1.36a8.79,8.79,0,0,0-1.37-.81,3.63,3.63,0,0,0-1.56-.33,2.53,2.53,0,0,0-1.82.56,1.75,1.75,0,0,0-.58,1.32,1.4,1.4,0,0,0,.39,1,3.12,3.12,0,0,0,1,.67c.43.19.88.37,1.36.56s.95.37,1.42.57a6.52,6.52,0,0,1,1.26.74,3.41,3.41,0,0,1,.9,1.06,3.21,3.21,0,0,1,.35,1.56,3.59,3.59,0,0,1-.54,1.92,3.68,3.68,0,0,1-1.57,1.39A5.81,5.81,0,0,1,193.92,91.62Z"/><path class="cls-2" d="M205.45,91.62a3.49,3.49,0,0,1-3-1.29,6.16,6.16,0,0,1-1-3.76V78.39h2.19v7.92a4.68,4.68,0,0,0,.57,2.61,2.12,2.12,0,0,0,1.86.82,3.13,3.13,0,0,0,1.78-.53,8.37,8.37,0,0,0,1.71-1.66V78.39h2.17V91.31H210l-.17-2h-.07A8.76,8.76,0,0,1,207.8,91,4.3,4.3,0,0,1,205.45,91.62Z"/><path class="cls-2" d="M218.39,91.62a2.36,2.36,0,0,1-1.31-.34,2,2,0,0,1-.73-1,4.57,4.57,0,0,1-.24-1.56V72.37h2.19V88.88a1.1,1.1,0,0,0,.18.71.49.49,0,0,0,.41.22h.19l.26,0,.31,1.67-.52.13A3.73,3.73,0,0,1,218.39,91.62Z"/><path class="cls-2" d="M226.91,91.62a3.85,3.85,0,0,1-2.17-.54,2.92,2.92,0,0,1-1.15-1.51,6.75,6.75,0,0,1-.35-2.26V80.15h-1.92V78.51l2-.12.24-3.64h1.81v3.64h3.52v1.76h-3.52v7.23a3.24,3.24,0,0,0,.44,1.82,1.73,1.73,0,0,0,1.56.66,3.1,3.1,0,0,0,.76-.11,4.86,4.86,0,0,0,.71-.25l.43,1.64a9.46,9.46,0,0,1-1.17.33A5.17,5.17,0,0,1,226.91,91.62Z"/><path class="cls-2" d="M236.42,91.62a5.8,5.8,0,0,1-5.15-3.11,8.58,8.58,0,0,1,0-7.32,5.87,5.87,0,0,1,2.2-2.32,5.72,5.72,0,0,1,2.95-.81,5.86,5.86,0,0,1,2.27.45,5.72,5.72,0,0,1,1.92,1.33A6.48,6.48,0,0,1,241.92,82a8.28,8.28,0,0,1,.47,2.88,7.51,7.51,0,0,1-.83,3.65,6,6,0,0,1-2.19,2.31A5.73,5.73,0,0,1,236.42,91.62Zm0-1.81a3.23,3.23,0,0,0,2-.62,3.93,3.93,0,0,0,1.32-1.74,6.5,6.5,0,0,0,.48-2.59,6.62,6.62,0,0,0-.48-2.62,4,4,0,0,0-1.32-1.73,3.41,3.41,0,0,0-3.92,0,4,4,0,0,0-1.31,1.73,6.81,6.81,0,0,0-.46,2.62,6.69,6.69,0,0,0,.46,2.59,4,4,0,0,0,1.31,1.74A3.25,3.25,0,0,0,236.42,89.81Z"/><path class="cls-2" d="M245.82,91.31V78.39h1.78l.21,2.36h.05a5.94,5.94,0,0,1,1.63-2,3.34,3.34,0,0,1,2-.72,4.42,4.42,0,0,1,.78.06,1.89,1.89,0,0,1,.6.22l-.4,1.88-.6-.15a3,3,0,0,0-.66-.06,2.81,2.81,0,0,0-1.69.68A5.19,5.19,0,0,0,248,83v8.3Z"/><path class="cls-2" d="M259.94,91.62a6.17,6.17,0,0,1-3.14-.81,5.91,5.91,0,0,1-2.22-2.32,7.49,7.49,0,0,1-.82-3.63,8.09,8.09,0,0,1,.47-2.84,6.56,6.56,0,0,1,1.3-2.14,5.58,5.58,0,0,1,1.87-1.36,5.22,5.22,0,0,1,2.14-.46,5,5,0,0,1,2.8.74,4.6,4.6,0,0,1,1.75,2.1,7.81,7.81,0,0,1,.61,3.22c0,.24,0,.46,0,.67a4.35,4.35,0,0,1-.08.57h-8.7a5.51,5.51,0,0,0,.63,2.39,4,4,0,0,0,3.65,2.13,5.17,5.17,0,0,0,1.72-.27,7.86,7.86,0,0,0,1.51-.75l.77,1.45a9.39,9.39,0,0,1-1.88.92A6.75,6.75,0,0,1,259.94,91.62Zm-4.06-7.81h6.92a4.56,4.56,0,0,0-.85-3,2.88,2.88,0,0,0-2.36-1,3.22,3.22,0,0,0-1.7.48,3.88,3.88,0,0,0-1.34,1.36A5.24,5.24,0,0,0,255.88,83.81Z"/><path class="cls-2" d="M271.26,91.62a7,7,0,0,1-2.62-.52,7.82,7.82,0,0,1-2.18-1.27l1.05-1.45a8.82,8.82,0,0,0,1.76,1.12,4.83,4.83,0,0,0,2.06.43,2.74,2.74,0,0,0,1.92-.59,1.85,1.85,0,0,0,.63-1.43,1.51,1.51,0,0,0-.44-1.11,3.93,3.93,0,0,0-1.12-.76,13.12,13.12,0,0,0-1.39-.58c-.6-.24-1.19-.51-1.77-.8a4.27,4.27,0,0,1-1.43-1.14,2.82,2.82,0,0,1-.56-1.8,3.4,3.4,0,0,1,.53-1.87,3.56,3.56,0,0,1,1.52-1.3,5.32,5.32,0,0,1,2.4-.49,5.67,5.67,0,0,1,2.22.43,6.84,6.84,0,0,1,1.78,1l-1.05,1.36a8.35,8.35,0,0,0-1.37-.81,3.63,3.63,0,0,0-1.56-.33,2.53,2.53,0,0,0-1.82.56,1.79,1.79,0,0,0-.58,1.32,1.4,1.4,0,0,0,.39,1,3.17,3.17,0,0,0,1,.67c.43.19.88.37,1.35.56s1,.37,1.42.57a6,6,0,0,1,1.26.74,3.41,3.41,0,0,1,.9,1.06,3.21,3.21,0,0,1,.35,1.56,3.63,3.63,0,0,1-2.11,3.31A5.81,5.81,0,0,1,271.26,91.62Z"/><path class="cls-2" d="M283,97.06a5.82,5.82,0,0,1-1.06-.09,5.12,5.12,0,0,1-.82-.24l.43-1.64a3.29,3.29,0,0,0,.57.16,3,3,0,0,0,.66.08,1.27,1.27,0,0,0,1.29-.69,4.73,4.73,0,0,0,.31-1.86V78.39h2.16V92.78a6.74,6.74,0,0,1-.34,2.27,2.94,2.94,0,0,1-1.13,1.49A3.69,3.69,0,0,1,283,97.06Zm2.45-21.33a1.45,1.45,0,0,1-1.05-.39,1.42,1.42,0,0,1-.4-1.06,1.36,1.36,0,0,1,.4-1,1.61,1.61,0,0,1,2.08,0,1.33,1.33,0,0,1,.42,1,1.4,1.4,0,0,1-.42,1.06A1.45,1.45,0,0,1,285.44,75.73Z"/><path class="cls-2" d="M294.67,91.62a3.5,3.5,0,0,1-3-1.29,6.22,6.22,0,0,1-1-3.76V78.39h2.19v7.92a4.68,4.68,0,0,0,.57,2.61,2.12,2.12,0,0,0,1.86.82,3.11,3.11,0,0,0,1.78-.53,8.14,8.14,0,0,0,1.72-1.66V78.39H301V91.31h-1.81l-.16-2h-.08A8.76,8.76,0,0,1,297,91,4.26,4.26,0,0,1,294.67,91.62Z"/><path class="cls-2" d="M305.32,91.31V78.39h1.79l.21,2.36h.05a5.82,5.82,0,0,1,1.63-2,3.34,3.34,0,0,1,2-.72,4.22,4.22,0,0,1,.77.06,1.86,1.86,0,0,1,.61.22L312,80.22l-.59-.15a3.07,3.07,0,0,0-.67-.06,2.81,2.81,0,0,0-1.68.68A5.11,5.11,0,0,0,307.51,83v8.3Z"/><path class="cls-2" d="M315.29,76.08,314.15,75l3.75-4.42L319.45,72Zm-.74,15.23V78.39h2.19V91.31Z"/><path class="cls-2" d="M325.49,91.62a5.06,5.06,0,0,1-2.82-.79,5,5,0,0,1-1.85-2.29,9.21,9.21,0,0,1-.66-3.68,7.69,7.69,0,0,1,.79-3.61A6,6,0,0,1,323,78.89a5,5,0,0,1,2.75-.83,4.51,4.51,0,0,1,2,.39,7.85,7.85,0,0,1,1.68,1.11l-.12-2.21v-5h2.19V91.31h-1.78l-.19-1.53h-.08a7.24,7.24,0,0,1-1.76,1.3A4.44,4.44,0,0,1,325.49,91.62Zm.47-1.84a3.47,3.47,0,0,0,1.72-.44A5.87,5.87,0,0,0,329.27,88V81.25a5.31,5.31,0,0,0-1.57-1,4.07,4.07,0,0,0-1.57-.31,3.08,3.08,0,0,0-1.87.63,4.43,4.43,0,0,0-1.35,1.74,6.06,6.06,0,0,0-.51,2.58,7.31,7.31,0,0,0,.43,2.66,3.6,3.6,0,0,0,1.22,1.7A3.14,3.14,0,0,0,326,89.78Z"/><path class="cls-2" d="M336.93,75.73a1.39,1.39,0,0,1-1-.39,1.42,1.42,0,0,1-.4-1.06,1.36,1.36,0,0,1,.4-1,1.42,1.42,0,0,1,1-.38,1.49,1.49,0,0,1,1.05.38,1.39,1.39,0,0,1,.4,1,1.36,1.36,0,0,1-1.45,1.45Zm-1.09,15.58V78.39H338V91.31Z"/><path class="cls-2" d="M347.47,91.62a6,6,0,0,1-3.08-.8,5.58,5.58,0,0,1-2.17-2.31,7.75,7.75,0,0,1-.8-3.65,7.33,7.33,0,0,1,.86-3.67,6,6,0,0,1,2.28-2.32,6.16,6.16,0,0,1,3.07-.81,4.9,4.9,0,0,1,2.18.45,6.54,6.54,0,0,1,1.58,1.07L350.3,81a5.06,5.06,0,0,0-1.18-.81,3.05,3.05,0,0,0-1.39-.31,3.73,3.73,0,0,0-2.1.62,4.2,4.2,0,0,0-1.45,1.73,6.85,6.85,0,0,0,0,5.21,4.15,4.15,0,0,0,1.4,1.74,3.6,3.6,0,0,0,2.09.62,3.71,3.71,0,0,0,1.66-.37,5.93,5.93,0,0,0,1.38-.92l.95,1.48a6.72,6.72,0,0,1-1.95,1.19A6.06,6.06,0,0,1,347.47,91.62Z"/><path class="cls-2" d="M358.88,91.62a5.84,5.84,0,0,1-2.95-.8,5.77,5.77,0,0,1-2.2-2.31,8.58,8.58,0,0,1,0-7.32,5.87,5.87,0,0,1,2.2-2.32,5.75,5.75,0,0,1,2.95-.81,5.86,5.86,0,0,1,2.27.45,5.72,5.72,0,0,1,1.92,1.33A6.48,6.48,0,0,1,364.38,82a8.28,8.28,0,0,1,.47,2.88,7.51,7.51,0,0,1-.83,3.65,5.89,5.89,0,0,1-2.19,2.31A5.73,5.73,0,0,1,358.88,91.62Zm0-1.81a3.23,3.23,0,0,0,2-.62,3.93,3.93,0,0,0,1.32-1.74,6.5,6.5,0,0,0,.48-2.59,6.62,6.62,0,0,0-.48-2.62,4,4,0,0,0-1.32-1.73,3.41,3.41,0,0,0-3.92,0,4,4,0,0,0-1.31,1.73,6.81,6.81,0,0,0-.46,2.62,6.69,6.69,0,0,0,.46,2.59,4,4,0,0,0,1.31,1.74A3.25,3.25,0,0,0,358.88,89.81Z"/><path class="cls-2" d="M371.53,91.62a7,7,0,0,1-2.62-.52,7.82,7.82,0,0,1-2.18-1.27l1-1.45a8.82,8.82,0,0,0,1.76,1.12,4.84,4.84,0,0,0,2.07.43,2.73,2.73,0,0,0,1.91-.59,1.85,1.85,0,0,0,.63-1.43,1.51,1.51,0,0,0-.44-1.11,3.8,3.8,0,0,0-1.12-.76,13.12,13.12,0,0,0-1.39-.58c-.6-.24-1.19-.51-1.77-.8A4.37,4.37,0,0,1,368,83.52a2.82,2.82,0,0,1-.56-1.8,3.4,3.4,0,0,1,.53-1.87,3.62,3.62,0,0,1,1.52-1.3,5.35,5.35,0,0,1,2.4-.49,5.63,5.63,0,0,1,2.22.43,6.52,6.52,0,0,1,1.78,1l-1.05,1.36a8.35,8.35,0,0,0-1.37-.81,3.56,3.56,0,0,0-1.55-.33,2.5,2.5,0,0,0-1.82.56,1.76,1.76,0,0,0-.59,1.32,1.36,1.36,0,0,0,.4,1,3,3,0,0,0,1,.67c.43.19.88.37,1.36.56s.94.37,1.41.57a6,6,0,0,1,1.26.74,3.44,3.44,0,0,1,.91,1.06,3.21,3.21,0,0,1,.34,1.56,3.58,3.58,0,0,1-2.11,3.31A5.75,5.75,0,0,1,371.53,91.62Z"/><path class="cls-2" d="M384.83,96.87a4.28,4.28,0,0,1-.83-.07,3.8,3.8,0,0,1-.69-.19l.43-1.74a3.92,3.92,0,0,0,.45.15,2.35,2.35,0,0,0,.54.07,2.3,2.3,0,0,0,1.8-.8,5.74,5.74,0,0,0,1.11-2l.28-1-5.18-12.94H385l2.61,7.16c.21.57.42,1.17.63,1.81s.43,1.25.66,1.85H389l.53-1.84c.18-.63.35-1.23.51-1.82l2.33-7.16h2.12l-4.85,14a11.12,11.12,0,0,1-1.1,2.27A5.17,5.17,0,0,1,387,96.28,4,4,0,0,1,384.83,96.87Z"/><path class="cls-2" d="M400.93,80.15V78.51l1.86-.12h4.8v1.76Zm1.76,11.16v-15a5.77,5.77,0,0,1,.41-2.26,3.12,3.12,0,0,1,1.23-1.47,3.92,3.92,0,0,1,2.12-.53,6.14,6.14,0,0,1,1.15.12,7.64,7.64,0,0,1,1,.29l-.47,1.69a3.2,3.2,0,0,0-1.45-.36,1.59,1.59,0,0,0-1.38.64,3.35,3.35,0,0,0-.45,1.91v15Zm8.47-15.58a1.4,1.4,0,0,1-1-.39,1.43,1.43,0,0,1-.41-1.06,1.36,1.36,0,0,1,.41-1,1.43,1.43,0,0,1,1-.38,1.53,1.53,0,0,1,1.06.38,1.36,1.36,0,0,1,.41,1,1.43,1.43,0,0,1-.41,1.06A1.49,1.49,0,0,1,411.16,75.73Zm-1.1,15.58V78.39h2.19V91.31Z"/><path class="cls-2" d="M416.61,91.31V78.39h1.78l.21,1.88h0a11,11,0,0,1,2-1.57,4.38,4.38,0,0,1,2.37-.64,3.47,3.47,0,0,1,3,1.3,6.32,6.32,0,0,1,.95,3.76v8.19h-2.17v-7.9a4.61,4.61,0,0,0-.58-2.64,2.15,2.15,0,0,0-1.87-.81,3.27,3.27,0,0,0-1.78.5,10.41,10.41,0,0,0-1.74,1.48v9.37Z"/><path class="cls-2" d="M434.09,91.62a4.31,4.31,0,0,1-1.93-.43,3.17,3.17,0,0,1-1.34-1.25,3.79,3.79,0,0,1-.49-2,3.57,3.57,0,0,1,1.89-3.24,15.61,15.61,0,0,1,6-1.59,5.49,5.49,0,0,0-.23-1.58,2.4,2.4,0,0,0-.79-1.21,2.57,2.57,0,0,0-1.65-.46,5,5,0,0,0-2.1.44,12.19,12.19,0,0,0-1.77.94l-.84-1.5c.4-.26.86-.51,1.38-.78a9.73,9.73,0,0,1,1.72-.65,7.33,7.33,0,0,1,2-.26,4.52,4.52,0,0,1,2.56.66A4,4,0,0,1,440,80.57a7.55,7.55,0,0,1,.46,2.79v8h-1.78l-.19-1.55h-.07a10.7,10.7,0,0,1-2,1.31A5.08,5.08,0,0,1,434.09,91.62Zm.61-1.76a4,4,0,0,0,1.78-.43,8.88,8.88,0,0,0,1.77-1.26V84.58a16.16,16.16,0,0,0-3.45.67A4.2,4.2,0,0,0,433,86.32a2.18,2.18,0,0,0-.55,1.49,1.77,1.77,0,0,0,.67,1.58A2.73,2.73,0,0,0,434.7,89.86Z"/><path class="cls-2" d="M444.5,91.31V78.39h1.79l.21,1.88h.05a11,11,0,0,1,2-1.57,4.38,4.38,0,0,1,2.37-.64,3.44,3.44,0,0,1,3,1.3,6.25,6.25,0,0,1,.95,3.76v8.19h-2.16v-7.9a4.61,4.61,0,0,0-.58-2.64,2.15,2.15,0,0,0-1.87-.81,3.25,3.25,0,0,0-1.78.5,9.67,9.67,0,0,0-1.74,1.48v9.37Z"/><path class="cls-2" d="M464.1,91.62a6,6,0,0,1-3.08-.8,5.62,5.62,0,0,1-2.16-2.31,7.63,7.63,0,0,1-.8-3.65,7.32,7.32,0,0,1,.85-3.67,6.1,6.1,0,0,1,5.36-3.13,4.86,4.86,0,0,1,2.17.45A6.54,6.54,0,0,1,468,79.58L466.93,81a4.86,4.86,0,0,0-1.18-.81,3.05,3.05,0,0,0-1.39-.31,3.69,3.69,0,0,0-2.09.62,4.13,4.13,0,0,0-1.45,1.73,6.13,6.13,0,0,0-.53,2.62,6,6,0,0,0,.52,2.59,4.07,4.07,0,0,0,1.4,1.74,3.57,3.57,0,0,0,2.08.62,3.68,3.68,0,0,0,1.66-.37,5.93,5.93,0,0,0,1.38-.92l1,1.48a7,7,0,0,1-2,1.19A6.11,6.11,0,0,1,464.1,91.62Z"/><path class="cls-2" d="M472.23,75.73a1.4,1.4,0,0,1-1-.39,1.46,1.46,0,0,1-.39-1.06,1.39,1.39,0,0,1,.39-1,1.44,1.44,0,0,1,1-.38,1.49,1.49,0,0,1,1,.38,1.36,1.36,0,0,1,.41,1,1.43,1.43,0,0,1-.41,1.06A1.45,1.45,0,0,1,472.23,75.73Zm-1.09,15.58V78.39h2.19V91.31Z"/><path class="cls-2" d="M482.91,91.62a6.17,6.17,0,0,1-3.14-.81,5.91,5.91,0,0,1-2.22-2.32,7.49,7.49,0,0,1-.82-3.63A8.09,8.09,0,0,1,477.2,82a6.56,6.56,0,0,1,1.3-2.14,5.58,5.58,0,0,1,1.87-1.36,5.22,5.22,0,0,1,2.14-.46,5,5,0,0,1,2.8.74,4.6,4.6,0,0,1,1.75,2.1,7.81,7.81,0,0,1,.61,3.22c0,.24,0,.46,0,.67a4.35,4.35,0,0,1-.08.57h-8.7a5.51,5.51,0,0,0,.63,2.39,4,4,0,0,0,3.65,2.13,5.17,5.17,0,0,0,1.72-.27,7.86,7.86,0,0,0,1.51-.75l.77,1.45a9.39,9.39,0,0,1-1.88.92A6.75,6.75,0,0,1,482.91,91.62Zm-4.06-7.81h6.92a4.56,4.56,0,0,0-.85-3,2.88,2.88,0,0,0-2.36-1,3.22,3.22,0,0,0-1.7.48,3.88,3.88,0,0,0-1.34,1.36A5.24,5.24,0,0,0,478.85,83.81Z"/><path class="cls-2" d="M490.86,91.31V78.39h1.78l.21,2.36h0a5.94,5.94,0,0,1,1.63-2,3.34,3.34,0,0,1,2-.72,4.42,4.42,0,0,1,.78.06,1.89,1.89,0,0,1,.6.22l-.4,1.88-.6-.15a3,3,0,0,0-.66-.06,2.83,2.83,0,0,0-1.69.68A5.19,5.19,0,0,0,493,83v8.3Z"/><path class="cls-2" d="M504.77,91.62a5.8,5.8,0,0,1-5.15-3.11,8.58,8.58,0,0,1,0-7.32,5.87,5.87,0,0,1,2.2-2.32,5.72,5.72,0,0,1,2.95-.81,5.86,5.86,0,0,1,2.27.45A5.72,5.72,0,0,1,509,79.84a6.3,6.3,0,0,1,1.3,2.14,8.05,8.05,0,0,1,.48,2.88,7.51,7.51,0,0,1-.83,3.65,6,6,0,0,1-2.19,2.31A5.73,5.73,0,0,1,504.77,91.62Zm0-1.81a3.25,3.25,0,0,0,2-.62,4.08,4.08,0,0,0,1.32-1.74,6.5,6.5,0,0,0,.48-2.59,6.62,6.62,0,0,0-.48-2.62,4.1,4.1,0,0,0-1.32-1.73,3.41,3.41,0,0,0-3.92,0,3.93,3.93,0,0,0-1.31,1.73,6.81,6.81,0,0,0-.46,2.62,6.69,6.69,0,0,0,.46,2.59,3.91,3.91,0,0,0,1.31,1.74A3.23,3.23,0,0,0,504.77,89.81Z"/><path class="cls-2" d="M517.42,91.62a7,7,0,0,1-2.63-.52,7.9,7.9,0,0,1-2.17-1.27l1-1.45a9.43,9.43,0,0,0,1.76,1.12,4.91,4.91,0,0,0,2.07.43,2.74,2.74,0,0,0,1.92-.59,1.85,1.85,0,0,0,.63-1.43,1.51,1.51,0,0,0-.44-1.11,3.93,3.93,0,0,0-1.12-.76,13.12,13.12,0,0,0-1.39-.58c-.6-.24-1.19-.51-1.77-.8a4.27,4.27,0,0,1-1.43-1.14,2.82,2.82,0,0,1-.56-1.8,3.4,3.4,0,0,1,.53-1.87,3.56,3.56,0,0,1,1.52-1.3,5.32,5.32,0,0,1,2.4-.49,5.67,5.67,0,0,1,2.22.43,6.84,6.84,0,0,1,1.78,1l-1,1.36a8.79,8.79,0,0,0-1.37-.81,3.63,3.63,0,0,0-1.56-.33,2.53,2.53,0,0,0-1.82.56,1.75,1.75,0,0,0-.58,1.32,1.4,1.4,0,0,0,.39,1,3.17,3.17,0,0,0,1,.67c.43.19.88.37,1.35.56s1,.37,1.42.57a6,6,0,0,1,1.26.74,3.41,3.41,0,0,1,.9,1.06,3.21,3.21,0,0,1,.35,1.56A3.63,3.63,0,0,1,520,91.1,5.81,5.81,0,0,1,517.42,91.62Z"/><path class="cls-3" d="M124.63,65.51h0Z"/></svg>