<svg id="Capa_1" data-name="Capa 1" xmlns="http://www.w3.org/2000/svg" viewBox="0 0 162.16 163.23"><defs><style>.cls-1{fill:#fff;stroke:#fff;stroke-miterlimit:10;}</style></defs><polygon class="cls-1" points="53.69 26.75 68.32 26.75 35.32 132.03 26.04 112.72 53.69 26.75"/><polygon class="cls-1" points="73.63 26.75 92 26.75 49.63 161.84 38.1 137 73.63 26.75"/><path class="cls-1" d="M75.53,92.53c29.74,4,51.72-16,51.58-33.77C127,46.21,115.85,33.45,100,27.31c27.63-1.69,49,13.36,51.82,30.69,2.58,15.67-10.66,28.88-13,31.12-17.7,16.95-43.52,11-47.69,10A55.51,55.51,0,0,1,75.53,92.53Z"/><path class="cls-1" d="M1.16.5H105c25.42,2.17,46.51,15.81,53.82,35.62a49,49,0,0,1,1.87,26,54.16,54.16,0,0,0-18-28.87,54.63,54.63,0,0,0-36.37-12.12l-62.75.12A67.09,67.09,0,0,1,22.1,15.5,67.2,67.2,0,0,1,1.16.5Z"/></svg>